/* XPM */
static char *_cc7d85dd740472ae628a090f7fa099fQVdgddyfmeqcCdju[] = {
/* columns rows colors chars-per-pixel */
"24 24 99 2 ",
"  c #3D253B",
". c #3D253B",
"X c #3D253B",
"o c #3D253B",
"O c #3D253B",
"+  c #1A0A17",
"@  c #0C0014",
"#  c #1C0C18",
"$  c #39241F",
"%  c #0C0013",
"&  c #231119",
"*  c None",
"=  c #0B0014",
"-  c #311C1B",
";  c #654727",
":  c #654728",
">  c #311D1C",
",  c #1C0C18",
"<  c #24121A",
"1  c #331E1D",
"2  c #331E1C",
"3  c #1E0D18",
"4  c #24121A",
"5  c #664728",
"6  c #1E0D18",
"7  c #24121A",
"8  c #1E0D18",
"9  c #24121A",
"0  c #66482B",
"q  c #331E1E",
"w  c #65482B",
"e  c #311D1D",
"r  c #0B0013",
"t  c #3E2820",
"y  c #3E2821",
"u  c #A67D3C",
"i  c #A67E3D",
"p  c #A98A5A",
"a  c #E7C682",
"s  c #E7BC61",
"d  c #A9823F",
"f  c #563C2A",
"g  c #B38E50",
"h  c #EBD09A",
"j  c #FFEEBE",
"k  c #FFDC7B",
"l  c #EBC061",
"z  c #B38E52",
"x  c #563C2B",
"c  c #B38E51",
"v  c #E9D2A1",
"b  c #FEEFC9",
"n  c #FFEEBD",
"m  c #FFDB7A",
"M  c #FEDF91",
"N  c #E9D2A2",
"B  c #6F4F2A",
"V  c #D1A85E",
"C  c #F9E7BD",
"Z  c #F2DFB5",
"A  c #DFBF7F",
"S  c #DFB65E",
"D  c #F2CF7C",
"F  c #F9DA91",
"G  c #D1A655",
"H  c #6F4F2C",
"J  c #6E4E2A",
"K  c #CCA359",
"L  c #F6DFA8",
"P  c #E1C283",
"I  c #BE9142",
"U  c #E1B657",
"Y  c #F6CB63",
"T  c #CC9F4B",
"R  c #6E4F2D",
"E  c #6E4E2D",
"W  c #CCA04E",
"Q  c #F6CF71",
"!  c #E1B860",
"~  c #BE9143",
"^  c #F9DA8E",
"/  c #DFB356",
"(  c #F2C862",
")  c #F9CE65",
"_  c #D1A34C",
"`  c #6F502D",
"'  c #FEE094",
"]  c #FFD669",
"[  c #FED368",
"{  c #E9BE5D",
"}  c #B38A43",
"|  c #EBC165",
" . c #FFD76A",
".. c #EBBF5B",
"X. c #563C28",
"o. c #A98240",
"O. c #E7BA59",
"+. c #A98342",
"@. c white",
/* pixels */
"                                                ",
"                                                ",
"                . . . . . . . .                 ",
"                . . . . . . . .                 ",
"              . X o O + + O o X .               ",
"          . . X @ # $ t y $ # % X . .           ",
"          . . o # & * u i * & # o . .           ",
"        . X o = - ; p a s d : > = o X .         ",
"        . , < 1 f g h j k l z x 2 < , .         ",
"        . 3 4 5 c v b n m M N z 5 4 3 .         ",
"        . 6 7 B V C Z A S D F G H 7 6 .         ",
"        . 8 9 J K L P I I U Y T R 9 8 .         ",
"        . 8 9 E W Q ! I ~ U Y T R 9 8 .         ",
"        . 6 7 H G ^ D / / ( ) _ ` 7 6 .         ",
"        . 3 4 5 z N ' ] ] [ { } 0 4 3 .         ",
"        . , < 2 x z |  . ...} X.q < , .         ",
"        . X o = > : o.O.O.+.w e r o X .         ",
"          . . o # & * i i * & # o . .           ",
"          . . X % # $ y y $ # % X . .           ",
"              . X o O + + O o X .               ",
"                . . . . . . . .                 ",
"                . . . . . . . .                 ",
"                                                ",
"                                                "
};
