/* XPM */
static char *_b506a059c00414eb84224af5e872b67[] = {
/* columns rows colors chars-per-pixel */
"24 24 123 2 ",
"   c None",
".  c #1C080E",
"X  c #1E0B12",
"o  c #200D13",
"O  c #231017",
"+  c #241319",
"@  c #29161B",
"#  c #27181F",
"$  c #29191F",
"%  c #311A1C",
"&  c #3A1F1D",
"*  c #2C1D24",
"=  c #2B2227",
"-  c #2E2428",
";  c #3C2121",
":  c #33252C",
">  c #322A2D",
",  c #3A2A2A",
"<  c #2F2E31",
"1  c #352A31",
"2  c #392C34",
"3  c #3B2F38",
"4  c #353334",
"5  c #3A3137",
"6  c #373837",
"7  c #3B3038",
"8  c #373838",
"9  c #393939",
"0  c #452724",
"q  c #4C2723",
"w  c #4D2C25",
"e  c #4C2D28",
"r  c #4F312C",
"t  c #50332E",
"y  c #422E32",
"u  c #433033",
"i  c #433B37",
"p  c #493A36",
"a  c #463E3A",
"s  c #4A3A3E",
"d  c #5C3B34",
"f  c #65392D",
"g  c #673D30",
"h  c #4C413B",
"j  c #5D403C",
"k  c #62473C",
"l  c #6E483C",
"z  c #724234",
"x  c #70493B",
"c  c #784F3E",
"v  c #453B44",
"b  c #454146",
"n  c #4E434D",
"m  c #46494C",
"M  c #4E4851",
"N  c #514751",
"B  c #534A53",
"V  c #584B52",
"C  c #574E58",
"Z  c #584F59",
"A  c #555059",
"S  c #5B535D",
"D  c #755343",
"F  c #7C5543",
"G  c #7E5C50",
"H  c #5A5761",
"J  c #5E5A64",
"K  c #5C5D69",
"L  c #615F69",
"P  c #63616A",
"I  c #666670",
"U  c #686570",
"Y  c #636B71",
"T  c #6A6A75",
"R  c #6C6D78",
"E  c #716C77",
"W  c #746F7A",
"Q  c #6E717C",
"!  c #77727E",
"~  c #81523F",
"^  c #925840",
"/  c #9F5E44",
"(  c #976048",
")  c #A76549",
"_  c #747681",
"`  c #767B86",
"'  c #7E7B87",
"]  c #7D7D89",
"[  c #81818D",
"{  c #858693",
"}  c #868895",
"|  c #848D99",
" . c #8C8D9A",
".. c #928F97",
"X. c #85919B",
"o. c #8B97A3",
"O. c #8E99A6",
"+. c #9295A2",
"@. c #9699A7",
"#. c #969DAA",
"$. c #9A9FAC",
"%. c #97A1AE",
"&. c #98A0AD",
"*. c #97A4B1",
"=. c #9CA3B1",
"-. c #9DA7B5",
";. c #9AA9B6",
":. c #9AAAB7",
">. c #9FAEBC",
",. c #A1ABB9",
"<. c #A0B0BD",
"1. c #A2B0BE",
"2. c #A0B2BE",
"3. c #A4B2BF",
"4. c #A3B4C1",
"5. c #A6B4C2",
"6. c #A6B8C6",
"7. c #A7B8C6",
"8. c #A8B9C7",
"9. c #A9BAC8",
"0. c #AABCCA",
"q. c #ACBECC",
"w. c #B2C6D5",
/* pixels */
"            + + + + + + + + +                   ",
"          : P P S S S S S S C :                 ",
"        : M %.&.] ' ] ] ] [ T :                 ",
"      + P *.#.P 1 : 1 1 1 1 : # O               ",
"      + L ,.+.B * H v * H v * J A               ",
"      + Z +.@.S 7 *.T 3 *.T 3 *.R +             ",
"      + Z @.5.P 7 *.T 7 *.T 7 *.R +             ",
"      + S $.q.o.` 4.O.] 6.O.` 6.T +             ",
"      + n { <.0.9.8.>.*.*.<.6.;.L +             ",
"      + * v { $.@.@.U 3 3 T } n :         + + + ",
"    X o + > N ! +.+.W B Z S n + .       * N 7 + ",
"  : 1 3 5 > * B [ ]  .+.[ n # 1 : +   * v } J + ",
"+ N { #.L * > 9 b 2 _ *.n + 1 | P O O B } 3.I + ",
"+ S =.w.Q # 4 > > N [ %._ b b <.Q * N } -._ M   ",
"+ V ..%.J # 4 - 1 E  .#.*.Y m X.P y E +.| 3     ",
"+ d G s * # 4 6 1 1 _ *.N 4 6 7 j l u 3 3       ",
"+ ; e @ ; d k D x % Q ;.3 w c & 0 r @ X         ",
"+ + + + t F F ( ^ ; K | 7 g )     + +           ",
"      + : a a h p $ - 5 4 i p *                 ",
"    # - 1 6 6 6 < # q f , < 4 - *               ",
"    # 4 8 6 6 8 4 # z / ; = 6 8 - +             ",
"    # 4 8 6 6 8 4 # d ~ ; = 6 8 - +             ",
"                                -               ",
"                                                "
};
