/* XPM */
static const char *dHJhcGRvb3I_[] = {
/* columns rows colors chars-per-pixel */
"24 24 143 2 ",
"   c #210D13",
".  c #200D14",
"X  c #241219",
"o  c #3D253B",
"O  c #2D161B",
"+  c #3F211F",
"@  c #2A1921",
"#  c #301A20",
"$  c #351E20",
"%  c #32222A",
"&  c #362128",
"*  c #362228",
"=  c #372228",
"-  c #33242C",
";  c #3C2528",
":  c #372830",
">  c #372931",
",  c #382931",
"<  c #382932",
"1  c #382A32",
"2  c #3A2D35",
"3  c #3B2F37",
"4  c #3D2D35",
"5  c #382E38",
"6  c #3B3038",
"7  c #3D3038",
"8  c #3C3139",
"9  c #3C313A",
"0  c #3D313A",
"q  c #432624",
"w  c #422626",
"e  c #452B2C",
"r  c #4F2E29",
"t  c #522E25",
"y  c #522F26",
"u  c #543129",
"i  c #543229",
"p  c #54322A",
"a  c #55322A",
"s  c #55332B",
"d  c #56332A",
"f  c #52322D",
"g  c #473238",
"h  c #40363F",
"j  c #4A383B",
"k  c #533A3D",
"l  c #61403A",
"z  c #784D3C",
"x  c #463942",
"c  c #473C45",
"v  c #493A41",
"b  c #543C40",
"n  c #543C41",
"m  c #573E41",
"M  c #4B414A",
"N  c #4E434D",
"B  c #4E454E",
"V  c #5A4041",
"C  c #5B4041",
"Z  c #5C4041",
"A  c #5C4141",
"S  c #56434A",
"D  c #584F59",
"F  c #59515B",
"G  c #5B535D",
"H  c #5C535D",
"J  c #5C535E",
"K  c #5C545E",
"L  c #684742",
"P  c #694842",
"I  c #6C4942",
"U  c #6C4A42",
"Y  c #6E4B43",
"T  c #704D45",
"R  c #7C5140",
"E  c #7D5443",
"W  c #785144",
"Q  c #795144",
"!  c #775C58",
"~  c #785D58",
"^  c #5F5862",
"/  c #5F5863",
"(  c #64616B",
")  c #6F666E",
"_  c #666975",
"`  c #696973",
"'  c #676B78",
"]  c #6B6D78",
"[  c #6C6E78",
"{  c #6F717B",
"}  c #72747F",
"|  c #805544",
" . c #815545",
".. c #815644",
"X. c #825645",
"o. c #8A5A45",
"O. c #8C5C45",
"+. c #8D5D47",
"@. c #8C6757",
"#. c #916D5E",
"$. c #7C7A86",
"%. c #7D7B87",
"&. c #777D88",
"*. c #7E7C88",
"=. c #7F7C88",
"-. c #817F8B",
";. c #82808C",
":. c #82818E",
">. c #82838F",
",. c #83838F",
"<. c #84818D",
"1. c #878895",
"2. c #848C98",
"3. c #8D8E9B",
"4. c #8D8F9B",
"5. c #8D8F9C",
"6. c #8A909D",
"7. c #8E909D",
"8. c #95989F",
"9. c #9295A2",
"0. c #9598A5",
"q. c #929DAA",
"w. c #939EAA",
"e. c #929EAB",
"r. c #9B9FA9",
"t. c #96A2AF",
"y. c #96A4B1",
"u. c #97A6B3",
"i. c #9AA7B4",
"p. c #9AABB9",
"a. c #A3AEB8",
"s. c #A1ADBB",
"d. c #A0AFBC",
"f. c #A4AFBC",
"g. c #A1B0BD",
"h. c #A4B1BF",
"j. c #A9B1B9",
"k. c #A4B2C0",
"l. c #A7B4C2",
"z. c #A6B8C6",
"x. c #ABBECC",
"c. c #AFC2D0",
"v. c #3D253B",
/* pixels */
"v.v.o o o o o o o o o o o o o o o o o o o o v.v.",
"v.. @ N K J F D D J K K K K J D D F J K N @ . v.",
"o @ c 1.5.,.4.0.9.,.$.=.=.$.,.9.0.4.,.5.1.c @ o ",
"o N 1.k.{ x -.f.t.M - > > - M t.f.-.x { k.1.N o ",
"o G 4.} h % $.l.i.v + y y + v i.l.$.% h } 4.G o ",
"o / ,.<   4 =.h.d.) ! #.#.! ) d.h.=.4   < ,./ o ",
"o ` w.3 # S <.s.x.g.s.j.j.s.g.x.s.<.S # 3 w.` o ",
"o [ u.0 q ~ r.c.z.&._ ' ' _ &.z.c.r.~ q 0 u.[ o ",
"o ] u.0 y @.8.p.2.0 O $ $ O 0 2.p.8.@.y 0 u.] o ",
"o ] u.0 s E j 5 0 g l z z l g 0 5 j E s 0 u.] o ",
"o ] u.0 s R e q f k T +.+.T k f q e R s 0 u.] o ",
"o ] u.0 s | A I | C I o.o.I C | I A | s 0 u.] o ",
"o ] u.0 s | A I | C I o.o.I C | I A | s 0 u.] o ",
"o [ u.0 s | A I | C I o.o.I C | I A | s 0 u.[ o ",
"o ` w.6 s | A I | C I o.o.I C | I A | s 6 w.` o ",
"o / ,.< s | A I | C I o.o.I C | I A | s < ,./ o ",
"o ( 6.3 s | A I | A I +.+.I A | I A | s 3 6.( o ",
"o ` w.3 r Q C P Q C L | | L C Q P C Q r 3 w.` o ",
"o / ,.< ; C n n C n n A A n n C n n C ; < ,./ o ",
"o G 4.} B = = = = = = = = = = = = = = B } 4.G o ",
"o N 1.k.} > > > > > > > > > > > > > > } k.1.N o ",
"o @ c 1.7.=.=.=.=.=.=.=.=.=.=.=.=.=.=.7.1.c @ o ",
"v.. @ N J K K K K K K K K K K K K K K J N @ . v.",
"v.v.o o o o o o o o o o o o o o o o o o o o v.v."
};
