/* XPM */
static char *_71bcaae60874bfefd86fd624da52276N6RTSmIXE1TvoBF9[] = {
/* columns rows colors chars-per-pixel */
"24 24 83 1 ",
"  c #4C2F49",
". c #4B2E49",
"X c #4E3149",
"o c #5D3C4B",
"O c #62404C",
"+ c #5E3D4C",
"@ c #5A3A4B",
"# c #724D4E",
"$ c #79524F",
"% c #77504E",
"& c #78514E",
"* c #714C4D",
"= c #59394B",
"- c #77514F",
"; c #744F4C",
": c #704B49",
"> c #704C4A",
", c #754F4C",
"< c #6E4A48",
"1 c #6D4A48",
"2 c #6F4B48",
"3 c #744E4B",
"4 c #603E4A",
"5 c #613F4C",
"6 c #754F4D",
"7 c #5C3C48",
"8 c #5D3D49",
"9 c #704C49",
"0 c #704B4D",
"q c #6A4749",
"w c #684548",
"e c #684648",
"r c #694648",
"t c #5A3A49",
"y c #50324A",
"u c #53354A",
"i c #523449",
"p c #4F3149",
"a c #452A42",
"s c #442942",
"d c #432942",
"f c #442A43",
"g c #3D253B",
"h c #3C253A",
"j c #3A2236",
"k c #392235",
"l c #3B2338",
"z c #3E253C",
"x c #3A2336",
"c c #2C1824",
"v c #28151E",
"b c #29161F",
"n c #331E2E",
"m c #382134",
"M c #2F1A27",
"N c #26141C",
"B c #241218",
"V c #241219",
"C c #2B1722",
"Z c #2E1A27",
"A c #311C2B",
"S c #3E263C",
"D c #3D253C",
"F c #25131A",
"G c #321D2C",
"H c #392236",
"J c #291620",
"K c #2F1B28",
"L c #27151D",
"P c #301B29",
"I c #2A1721",
"U c #321D2B",
"Y c #28161F",
"T c #362031",
"R c #3A2337",
"E c #2F1A28",
"W c #361F31",
"Q c #26131B",
"! c #27141D",
"~ c #26141B",
"^ c #2C1823",
"/ c #251319",
"( c white",
/* pixels */
"                        ",
" .XoOOOOOOOOOOOOOOOO+X. ",
" X@#$%%%%%%%%%%%%%%&*=X ",
" o#-;:::::::::::::::>*+ ",
" O$,:<<<<<<<<<<<<<<1234 ",
" 56:<<<<<<<<<<<<<<<<<<7 ",
" 8:<<<<<<<<<<<<<<<<<<<7 ",
" 4392222222222222222228 ",
" +0qweeeeeeeeeeeeeeerrt ",
" yuiiiiiiiiiiiiiiiiiiip ",
"asdffffffffffffffffffffa",
"gghjkkkkkkkkkkkkkkkkkklg",
"gzxcvbbbbbbbbbbbbbbbbbng",
"gmMNBVVVVVVVVCZNBVVVVVAS",
"DAFFFFFFFFFFFGHJVFFFFFKk",
"gAFFFFFFFFFFFGHJVFFFFFLb",
"PILPGGGGGGCLPGAUGGGGPLCA",
"JNYTRHHHHHZYTEvWRHHRWvMH",
"HKQYJJJJJJ!~YLQYJJJJY~LJ",
"G^FVVVVVVV/FV/FVVVVVVF/V",
"FFFFFFFFFFFFFFFFFFFFFFFF",
"FFFFFFFFFFFFFFFFFFFFFFFF",
"FFFFFFFFFFFFFFFFFFFFFFFF",
"FFFFFFFFFFFFFFFFFFFFFFFF"
};
