/* XPM */
static char *_a9f44c6daeb47539b49dc4db717acdaVmMlnSwSes4eOikR[] = {
/* columns rows colors chars-per-pixel */
"24 24 40 1 ",
"  c #25131A",
". c #392131",
"X c #4C2F49",
"o c #382132",
"O c #4F3149",
"+ c #5A3A49",
"@ c #5D3D49",
"# c #5C3C49",
"$ c #5C3C48",
"% c #613F4B",
"& c #56374B",
"* c #372032",
"= c #523449",
"- c #694649",
"; c #6F4B48",
": c #6E4A48",
"> c #704C49",
", c #77504E",
"< c #62404C",
"1 c #704B49",
"2 c #684548",
"3 c #6D4947",
"4 c #372031",
"5 c #6A474A",
"6 c #6F4A48",
"7 c #724D4A",
"8 c #53354A",
"9 c #704B4D",
"0 c #744E4B",
"q c #754F4D",
"w c #78514F",
"e c #61404C",
"r c #382031",
"t c #50324A",
"y c #5E3D4C",
"u c #603E4A",
"i c #613F4C",
"p c #56374A",
"a c #392132",
"s c white",
/* pixels */
"             .XXXXXXXXXX",
"             oO+@##$@%&X",
"             *=-;:::>,<X",
"             *=-;:::>,<X",
"             *=-;:::1,<X",
"             *=-;:::1,<X",
"             *=-;:::1,<X",
"             *=-;:::1,<X",
"             *=-;:::1,<X",
"             *=-;:::1,<X",
"             *=-;:::1,<X",
"             *=-;:::1,<X",
"             *=-;:::1,<X",
"             *=-;:::1,<X",
"             *=-;:::1,<X",
"             *=-;:::1,<X",
"             *=-;:::1,<X",
"             *=-;:::1,<X",
"             *=-;:::1,<X",
"             *=2;::31,<X",
"             4=5>6117,<X",
"             48901q,,weX",
"             rtyu@i<<epX",
"             aXXXXXXXXXX"
};
