/* XPM */
static char *_03610aff5b04dd6bb3c0d547334ff49sqZHExFW8ABDOVXq[] = {
/* columns rows colors chars-per-pixel */
"24 24 40 1 ",
"  c #4C2F49",
". c #392131",
"X c #25131A",
"o c #56374B",
"O c #613F4B",
"+ c #5D3D49",
"@ c #5C3C48",
"# c #5C3C49",
"$ c #5A3A49",
"% c #4F3149",
"& c #382132",
"* c #62404C",
"= c #77504E",
"- c #704C49",
"; c #6E4A48",
": c #6F4B48",
"> c #694649",
", c #523449",
"< c #372032",
"1 c #704B49",
"2 c #6D4947",
"3 c #684548",
"4 c #724D4A",
"5 c #6F4A48",
"6 c #6A474A",
"7 c #372031",
"8 c #61404C",
"9 c #78514F",
"0 c #754F4D",
"q c #744E4B",
"w c #704B4D",
"e c #53354A",
"r c #56374A",
"t c #613F4C",
"y c #603E4A",
"u c #5E3D4C",
"i c #50324A",
"p c #382031",
"a c #392132",
"s c white",
/* pixels */
"          .XXXXXXXXXXXXX",
" oO+@##+$%&XXXXXXXXXXXXX",
" *=-;;;:>,<XXXXXXXXXXXXX",
" *=-;;;:>,<XXXXXXXXXXXXX",
" *=1;;;:>,<XXXXXXXXXXXXX",
" *=1;;;:>,<XXXXXXXXXXXXX",
" *=1;;;:>,<XXXXXXXXXXXXX",
" *=1;;;:>,<XXXXXXXXXXXXX",
" *=1;;;:>,<XXXXXXXXXXXXX",
" *=1;;;:>,<XXXXXXXXXXXXX",
" *=1;;;:>,<XXXXXXXXXXXXX",
" *=1;;;:>,<XXXXXXXXXXXXX",
" *=1;;;:>,<XXXXXXXXXXXXX",
" *=1;;;:>,<XXXXXXXXXXXXX",
" *=1;;;:>,<XXXXXXXXXXXXX",
" *=1;;;:>,<XXXXXXXXXXXXX",
" *=1;;;:>,<XXXXXXXXXXXXX",
" *=1;;;:>,<XXXXXXXXXXXXX",
" *=1;;;:>,<XXXXXXXXXXXXX",
" *=12;;:3,<XXXXXXXXXXXXX",
" *=4115-6,7XXXXXXXXXXXXX",
" 89==01qwe7XXXXXXXXXXXXX",
" r8**t+yuipXXXXXXXXXXXXX",
"          aXXXXXXXXXXXXX"
};
