/* XPM */
static char *d1394022449e4e4699c63d9215700e7fiTJKEXFnxliGXQxB[] = {
/* columns rows colors chars-per-pixel */
"32 32 134 2 ",
"   c None",
".  c #1E0B11",
"X  c #21080D",
"o  c #220E14",
"O  c #231016",
"+  c #25131A",
"@  c #2C121C",
"#  c #2F1520",
"$  c #271921",
"%  c #2A1B22",
"&  c #301521",
"*  c #2D232E",
"=  c #2E2633",
"-  c #2F2936",
";  c #2F2E3C",
":  c #302A37",
">  c #312E3C",
",  c #2F303E",
"<  c #31303D",
"1  c #412034",
"2  c #423337",
"3  c #433539",
"4  c #4D3D3F",
"5  c #2F3140",
"6  c #323443",
"7  c #393543",
"8  c #3C374A",
"9  c #363B4C",
"0  c #3C3C4C",
"q  c #373E51",
"w  c #3D3D50",
"e  c #4C2942",
"r  c #473C42",
"t  c #4C3E42",
"y  c #3A4355",
"u  c #3C4559",
"i  c #3C4B5F",
"p  c #3B4B60",
"a  c #3E5267",
"s  c #3E546A",
"d  c #4B4145",
"f  c #4B454E",
"g  c #4F405C",
"h  c #414E65",
"j  c #524A67",
"k  c #534C69",
"l  c #435366",
"z  c #43536B",
"x  c #49576C",
"c  c #46586C",
"v  c #525A66",
"b  c #555D6A",
"n  c #455870",
"m  c #5D5476",
"M  c #49627F",
"N  c #686569",
"B  c #72696A",
"V  c #4B6683",
"C  c #476C87",
"Z  c #4B6B87",
"A  c #476D89",
"S  c #4A6E8B",
"D  c #5C6183",
"F  c #536C8C",
"G  c #4B708D",
"H  c #4E7391",
"J  c #4D7895",
"K  c #4F7C9C",
"L  c #517595",
"P  c #527798",
"I  c #527D9D",
"U  c #5A789C",
"Y  c #606C91",
"T  c #4E82A5",
"R  c #5284A5",
"E  c #5286A9",
"W  c #5C87AC",
"Q  c #5489AB",
"!  c #588BAE",
"~  c #578FB2",
"^  c #5D8DB2",
"/  c #5691B4",
"(  c #5B93B6",
")  c #5693B8",
"_  c #5D96BC",
"`  c #5E98BF",
"'  c #678DA5",
"]  c #6A93AC",
"[  c #608EB5",
"{  c #6493B4",
"}  c #6896B1",
"|  c #6B99B3",
" . c #6191B8",
".. c #6199BB",
"X. c #6F9FBA",
"o. c #5E9EC5",
"O. c #6199C1",
"+. c #5EA3CA",
"@. c #61A6CE",
"#. c #75B0CF",
"$. c #62AAD3",
"%. c #63AED8",
"&. c #64B1DB",
"*. c #76B2D2",
"=. c #7CBBDC",
"-. c #6BB7E0",
";. c #868181",
":. c #898687",
">. c #8C8A8A",
",. c #929EA3",
"<. c #95A3A9",
"1. c #97AAB2",
"2. c #9AABB2",
"3. c #A5A5A1",
"4. c #A7A8A5",
"5. c #A9AAA7",
"6. c #A0AFB4",
"7. c #B7BAB6",
"8. c #89B7CD",
"9. c #9DBDCA",
"0. c #80BCDB",
"q. c #8CBFD9",
"w. c #93C3D8",
"e. c #A2C3D0",
"r. c #A9CBD7",
"t. c #A4CCDC",
"y. c #B7CFD5",
"u. c #BFD3D5",
"i. c #BBD5DC",
"p. c #CED4CD",
"a. c #C0D4D7",
"s. c #CDD9D5",
"d. c #D5DAD2",
"f. c #D4DBD4",
/* pixels */
"                                                                ",
"                                                                ",
"                    o o                                         ",
"                    6 6                                         ",
"                o 6 G G 6 . o o o o                             ",
"                o 9 Q ..b r 7 6 6 6                             ",
"                o 6 E *.2.,.' T E A 6 o o o                     ",
"                o 6 C | 9.r.q.=.=.| l 6 6 6                     ",
"        o o         ; l } q.r.y.y.9.} T R A 6 o                 ",
"        6 6         ; l } w.u.d.d.u.w.=.-.E 6 o                 ",
"    o 6 S S 6 X X , A | 9.u.s.f.f.s.a.t.=.E 6 o                 ",
"    o 0 ] X.c 5 6 s ) *.1.3.3.3.3.3.3.,.' G p 6                 ",
"    o d <.e.| T T / $._ b 4 t t t t t r 7 i J H 6 o             ",
"    o 3 ;.6.8.=.0.#.( A 9 - ; 6 6 6 6 ; - y H C < o             ",
"    + % 2 N 2.i.i.2.v 9 z Z K R R R R K Z c y ; % +             ",
"    + o . t 4.p.7.:.f q H ` $.&.&.&.&.$._ L y * + +             ",
"        . d 5.7.B f x H _ $.%.&.&.&.%.$.$._ L h = O             ",
"        o d >.;.2 = M W [  . .^ Q ~ +.@.O.W L l = O             ",
"            t 3 % ; V U D m m k 0 s / O.Y j 8 = $ +             ",
"            o o o > V F g e e 1 @ 6 E ( k 1 @ o + +             ",
"                o > V F 7 # & @ o 6 Q ! w @ o O + +             ",
"                O : z n 9 > 6 6 6 z _ ) s 6 < = $ +             ",
"                    - 9 c S R R R / @.@./ I G l = O             ",
"                    o - l L _ $.&.@.~ ! o._ L l : O             ",
"                        - u L O.%./ a i P P u -                 ",
"                        o = l S I A < = l l - o                 ",
"                            - > 6 6     : :                     ",
"                            O o o o     O O                     ",
"                                                                ",
"                                                                ",
"                                                                ",
"                                                                "
};
