/* XPM */
static char *dbcd5b84dfaf4df78a57d571d482ab4bDdn04xUzPkTtetO4[] = {
/* columns rows colors chars-per-pixel */
"32 32 174 2 ",
"   c black",
".  c #C1714D",
"X  c #B26B4B",
"o  c #976047",
"O  c #25131A",
"+  c #231219",
"@  c #211119",
"#  c #6A4135",
"$  c #8F5943",
"%  c #9D6147",
"&  c #A36448",
"*  c #BF704D",
"=  c #633C32",
"-  c #915942",
";  c #A46447",
":  c #AA6749",
">  c #C1714D",
",  c #C1714D",
"<  c #B26B4B",
"1  c #B26B4B",
"2  c #976047",
"3  c #976047",
"4  c #855743",
"5  c #875943",
"6  c #875843",
"7  c #845742",
"8  c #835642",
"9  c #885843",
"0  c #875742",
"q  c #835541",
"w  c #25131A",
"e  c #231219",
"r  c #211119",
"t  c #492724",
"y  c #9F5A3F",
"u  c #A56D56",
"i  c #8F695B",
"p  c #967567",
"a  c #A7735D",
"s  c #C7714B",
"d  c #C5714C",
"f  c #C2714D",
"g  c #25131A",
"h  c #231219",
"j  c #211119",
"k  c #4B2925",
"l  c #9C593F",
"z  c #B57860",
"x  c None",
"c  c #ABA09F",
"v  c #B9826B",
"b  c #C26F4A",
"n  c #C1704B",
"m  c #C1714D",
"M  c #B26B4B",
"N  c #976047",
"B  c #885943",
"V  c #875843",
"C  c #885843",
"Z  c #885842",
"A  c #8C6B5F",
"S  c #907165",
"D  c #938F96",
"F  c #9FA3AA",
"G  c #25131A",
"H  c #231219",
"J  c #221119",
"K  c #482825",
"L  c #92563E",
"P  c #AE735B",
"I  c #9A807B",
"U  c #949097",
"Y  c #A0A4AB",
"T  c #AA9C99",
"R  c #B17B64",
"E  c #B46A49",
"W  c #B46B4A",
"Q  c #B46C4C",
"!  c #412625",
"~  c #7D4E3C",
"^  c #98654E",
"/  c #916857",
"(  c #8D6C60",
")  c #917366",
"_  c #957161",
"`  c #986650",
"'  c #996147",
"]  c #996148",
"[  c #24121A",
"{  c #372022",
"}  c #5D3B32",
"|  c #744C3D",
" . c #795040",
".. c #7B5142",
"X. c #7B5041",
"o. c #784E3F",
"O. c #724A3C",
"+. c #6F483A",
"@. c #70483A",
"#. c #24131A",
"$. c #2A171C",
"%. c #361F21",
"&. c #452B2B",
"*. c #563A39",
"=. c #5F4241",
"-. c #5F4240",
";. c #553939",
":. c #442B2B",
">. c #3C2324",
",. c #3C2424",
"<. c #241219",
"1. c #221118",
"2. c #311D23",
"3. c #503637",
"4. c #604443",
"5. c #211018",
"6. c #231119",
"7. c #392124",
"8. c #664339",
"9. c #7E5545",
"0. c #3D2424",
"q. c #72493B",
"w. c #8E5D47",
"e. c #71493B",
"r. c #8D5D47",
"t. c #3B2323",
"y. c #704839",
"u. c #8D5C45",
"i. c #8C5B45",
"p. c #704739",
"a. c #201018",
"s. c #211119",
"d. c #3A2223",
"f. c #8D5B44",
"g. c #8C5B44",
"h. c #6F4638",
"j. c #1F0F18",
"k. c #2D181C",
"l. c #402322",
"z. c #5B3933",
"x. c #7C594F",
"c. c #8F6E61",
"v. c #937468",
"b. c #816359",
"n. c #5C3C37",
"m. c #492825",
"M. c #4A2925",
"N. c #4B2A26",
"B. c #422422",
"V. c #7F4836",
"C. c #9A6653",
"Z. c #937B78",
"A. c #A39897",
"S. c #9E6E5C",
"D. c #9B583E",
"F. c #9B593F",
"G. c #9B5A41",
"H. c #492925",
"J. c #95573F",
"K. c #B1755C",
"L. c #9B807C",
"P. c #AB9D9A",
"I. c #B37D66",
"U. c #B76C4B",
"Y. c #B76D4B",
"T. c #B76E4D",
"R. c #422625",
"E. c #7F4F3D",
"W. c #9A664E",
"Q. c #916858",
"!. c #996751",
"~. c #9B6248",
"^. c #9B6249",
"/. c white",
/* pixels */
"      . . > , m m , > . .             . . > , m m , > . .       ",
"      X X < 1 M M 1 < X X             X X < 1 M M 1 < X X       ",
"      o o 2 3 N N 3 2 o o             o o 2 3 N N 3 2 o o       ",
"O + @ # $ 4 5 B V 6 7 % & * * * * * * & % 7 6 V B 5 4 $ # @ + O ",
"O + @ = - 8 9 C Z 0 q ; : * * * * * * : ; q 0 Z C 9 8 - = @ + O ",
"w e r t y u i A S p a s d f f f f f f d s a p S A i u y t r e w ",
"g h j k l z x D F c v b n , , , , , , n b v c F D x z l k j h g ",
"G H J K L P I U Y T R E W Q Q Q Q Q Q W E R T Y U I P L K J H G ",
"G H J ! ~ ^ / ( ) _ ` ' ] ] ] ] ] ] ] ] ' ` _ ) ( / ^ ~ ! J H G ",
"G [ H { } |  ...X.o.O.+.+.@.@.@.@.@.@.+.+.O.o.X... .| } { H [ G ",
"G G #.$.%.&.*.=.-.;.:.>.>.,.,.,.,.,.,.>.>.:.;.-.=.*.&.%.$.#.G G ",
"G G G <.1.2.3.4.4.3.2.5.1.6.6.6.6.6.6.1.5.2.3.4.4.3.2.1.<.G G G ",
"G G G H J 7.8.9.9.8.7.5.J <.<.<.<.<.<.J 5.7.8.9.9.8.7.J H G G G ",
"G G G <.6.0.q.w.w.q.0.6.<.G G G G G G <.6.0.q.w.w.q.0.6.<.G G G ",
"G G G <.6.0.e.w.w.e.0.6.<.G G G G G G <.6.0.e.w.w.e.0.6.<.G G G ",
"G G G <.6.0.e.r.r.e.0.6.<.G G G G G G <.6.0.e.r.r.e.0.6.<.G G G ",
"G G G <.6.0.e.r.r.e.0.6.<.G G G G G G <.6.0.e.r.r.e.0.6.<.G G G ",
"G G G <.6.0.e.r.r.e.0.6.<.G G G G G G <.6.0.e.r.r.e.0.6.<.G G G ",
"G G G <.6.0.e.r.r.e.0.6.<.G G G G G G <.6.0.e.r.r.e.0.6.<.G G G ",
"G G G H 5.t.y.u.i.p.t.a.s.H H H H H H s.a.t.p.i.u.y.t.5.H G G G ",
"G G G 6.a.d.p.f.g.h.d.j.a.s.s.s.s.s.s.a.j.d.h.g.f.p.d.a.6.G G G ",
"G #.[ k.l.z.x.c.v.b.n.m.M.N.N.N.N.N.N.M.m.n.b.v.c.x.z.l.k.[ #.G ",
"G H J B.V.C.Z.U Y A.S.D.F.G.G.G.G.G.G.F.D.S.A.Y U Z.C.V.B.J H G ",
"G H J H.J.K.L.U Y P.I.U.Y.T.T.T.T.T.T.Y.U.I.P.Y U L.K.J.H.J H G ",
"G H J R.E.W.Q.( ) _ !.~.~.^.^.^.^.^.^.~.~.!._ ) ( Q.W.E.R.J H G ",
"G [ H { } |  ...X.o.O.+.+.@.@.@.@.@.@.+.+.O.o.X... .| } { H [ G ",
"G G #.$.%.&.*.=.-.;.:.>.>.,.,.,.,.,.,.>.>.:.;.-.=.*.&.%.$.#.G G ",
"G G G <.1.2.3.4.4.3.2.5.1.6.6.6.6.6.6.1.5.2.3.4.4.3.2.1.<.G G G ",
"G G G H J 7.8.9.9.8.7.5.J <.<.<.<.<.<.J 5.7.8.9.9.8.7.J H G G G ",
"G G G <.6.0.q.w.w.q.0.6.<.G G G G G G <.6.0.q.w.w.q.0.6.<.G G G ",
"G G G <.6.0.e.w.w.e.0.6.<.G G G G G G <.6.0.e.w.w.e.0.6.<.G G G ",
"G G G <.6.0.e.r.r.e.0.6.<.G G G G G G <.6.0.e.r.r.e.0.6.<.G G G "
};
