/* XPM */
static char *_fd3e8af2f524591b32565db776f8b96f80QnZzbsN7hCXdV[] = {
/* columns rows colors chars-per-pixel */
"32 32 145 2 ",
"   c None",
".  c #1C080E",
"X  c #1E0C13",
"o  c #210E15",
"O  c #231017",
"+  c #241219",
"@  c #2A161C",
"#  c #26191E",
"$  c #2B181D",
"%  c #351D1E",
"&  c #3F211F",
"*  c #271A20",
"=  c #2A1B21",
"-  c #351E20",
";  c #391F20",
":  c #2B2226",
">  c #2D2628",
",  c #2F2B2D",
"<  c #352224",
"1  c #3B2223",
"2  c #35252D",
"3  c #312C2E",
"4  c #3C2B2C",
"5  c #332D30",
"6  c #3A2D35",
"7  c #3D2F38",
"8  c #353536",
"9  c #3A3336",
"0  c #373837",
"q  c #37373A",
"w  c #3D3139",
"e  c #373838",
"r  c #383938",
"t  c #40201F",
"y  c #422524",
"u  c #442826",
"i  c #492926",
"p  c #452C29",
"a  c #423533",
"s  c #4B3731",
"d  c #4C3A35",
"f  c #40343D",
"g  c #4B3538",
"h  c #4D393B",
"j  c #503C36",
"k  c #5F3B31",
"l  c #623E34",
"z  c #4D413C",
"x  c #51423B",
"c  c #58463E",
"v  c #634339",
"b  c #68453B",
"n  c #69483E",
"m  c #7F4836",
"M  c #734A3C",
"N  c #7F4F3D",
"B  c #3F3941",
"V  c #413740",
"C  c #443B43",
"Z  c #473F48",
"A  c #474449",
"S  c #4B444B",
"D  c #514043",
"F  c #50454E",
"G  c #594A4D",
"H  c #494D50",
"J  c #554C56",
"K  c #564E58",
"L  c #515358",
"P  c #59535D",
"I  c #775242",
"U  c #795443",
"Y  c #74544B",
"T  c #7F6158",
"R  c #5C5761",
"E  c #5E5C66",
"W  c #5F5E68",
"Q  c #625A65",
"!  c #635E68",
"~  c #67636C",
"^  c #6A636C",
"/  c #75686D",
"(  c #746F7A",
")  c #76727E",
"_  c #824D3A",
"`  c #84513D",
"'  c #835844",
"]  c #955941",
"[  c #9E6147",
"{  c #9A6248",
"}  c #757681",
"|  c #797682",
" . c #757B86",
".. c #7C7A85",
"X. c #7D7E8A",
"o. c #778089",
"O. c #7C818C",
"+. c #81818D",
"@. c #848692",
"#. c #868996",
"$. c #8B8A97",
"%. c #898B98",
"&. c #938E94",
"*. c #89919D",
"=. c #8B96A2",
"-. c #8E9AA6",
";. c #8F9BA8",
":. c #9295A2",
">. c #9399A5",
",. c #929DAA",
"<. c #939FAB",
"1. c #919CA9",
"2. c #979EAB",
"3. c #939FAC",
"4. c #929DA9",
"5. c #999FAC",
"6. c #9A9FAC",
"7. c #94A2AF",
"8. c #96A3AF",
"9. c #94A0AD",
"0. c #9BA1AE",
"q. c #9AA1AE",
"w. c #96A3B0",
"e. c #95A5B1",
"r. c #97A4B1",
"t. c #97A5B2",
"y. c #9BA3B1",
"u. c #9CA3B0",
"i. c #9FA7B5",
"p. c #9DA8B5",
"a. c #A1AEBB",
"s. c #A0ACBA",
"d. c #A1AFBC",
"f. c #A5B3C1",
"g. c #A5B5C3",
"h. c #A7B7C5",
"j. c #A8B5C3",
"k. c #A6B9C7",
"l. c #A9B9C7",
"z. c #A9BBC9",
"x. c #AABAC8",
"c. c #ABBCCA",
"v. c #AABECC",
"b. c #AFC1D0",
"n. c #B0C2D0",
/* pixels */
"                o o o o o o o o o o o o                         ",
"                C C f f f f f f f f f w                         ",
"            . f  .*.X.) ) | | | | | | ~ 7 o                     ",
"            f E 1.s.#.) ) ) | | ) | | ! 5 o                     ",
"        o C  .4.0.@.K w 7 w f f w w f 6 @ o                     ",
"        o C *.j.6.( 7 # 7 w = = w w = = w C                     ",
"        o f ..0.>.( 7 w } } w w } } w w } X.Z o                 ",
"        o w ) >.5.| 7 C 4.;.C C ;.;.C C ;.4.Z o                 ",
"        o w ) 6.f.#.w C -.-.C C -.-.C C -.-.Z o                 ",
"        o w ) u.c.7.E E w.w.W ! r.r.E E r.-.Z o                 ",
"        o w ) 0.x.k.7.7.k.k.r.r.x.x.7.r.v.-.Z o                 ",
"        O 2 Q @.p.l.x.l.h.d.7.=.=.4.f.g.7. .C o                 ",
"        + # 2 K @.u.0.0.6.@.P C f P $.$.R V             o O + + ",
"        O O + 7 Q ..$.:.:...F 6 7 S ^ Q 2 X             7 6 = + ",
"    o o o # > 5 7 J ..:.:.$...) ) ^ S 2 + o O +     X 7 ! Q 6 O ",
"    7 f C C w , = w ~ | ) X.:.>.+.Q 2 = w w = O     6 K #.O.f o ",
"o 7 ! X.*. .C = > 0 A A w P >.1.P 2 + w  . .w o X 6 ! @.s.*.C o ",
"o w ) i.n.4.Z # 3 0 5 3 6 P >.4.E 7 = S 7.3.A # 2 K @.y.4. .C o ",
"o w ) i.b.4.Z # 3 8 = 7 ! +.:.2.4. .A L r.4.Z 2 Q #.d.4.E f     ",
"o 7 / &.:.} w # 3 5 = 7 ! +.:.2.2.o.H H o.| D g ~ +.*. .f .     ",
"O 4 Y T G w = # 3 0 5 5 7 P >.4.! C q q C D n b h f C C         ",
"O 1 k k % + - p d x c s $ Z 4.4.Z $ s d - ; l l - o o o         ",
"+ @ - - @ - k M I ' { _ & Z 4.4.Z & _ [     1 1 @ O             ",
"+ + O O O 1 v U I ' { _ y w  . .C p ` [     X O + +             ",
"        O = a z z x c d - = w B 8 9 x j < O                     ",
"        = : 8 0 0 0 0 3 = $ t u 4 8 0 5 : =                     ",
"    + = 3 8 0 0 0 0 0 , * y m _ p : 5 0 8 3 = +                 ",
"    + = 5 r e 0 0 0 e 3 * i ] ] i # 3 e r 5 = +                 ",
"    + = 5 r e 0 0 0 e 3 * y N N y * 3 r r 5 = +                 ",
"    + = 5 e 0 0 0 0 e 3 * 1 M M 1 * 3 r r 5 = +                 ",
"                                                                ",
"                                                                "
};
