/* XPM */
static char *_2262e9dbc384a60da79e90c3b12746f6GIIZAeMhdBvGaap[] = {
/* columns rows colors chars-per-pixel */
"32 32 104 2 ",
"   c #4C2F49",
".  c #4B2E49",
"X  c #4E3149",
"o  c #54354A",
"O  c #57374A",
"+  c #57374B",
"@  c #4A2E49",
"#  c #53354A",
"$  c #65424C",
"%  c #6E494E",
"&  c #6D494E",
"*  c #5F3E4C",
"=  c #714C4E",
"-  c #79524F",
";  c #78514E",
":  c #77504D",
">  c #77514E",
",  c #6F4A4D",
"<  c #5F3D4B",
"1  c #77504F",
"2  c #734E4B",
"3  c #714C4A",
"4  c #714C4B",
"5  c #65424D",
"6  c #744E4C",
"7  c #704B49",
"8  c #6E4A48",
"9  c #714C49",
"0  c #754F4C",
"q  c #6C484C",
"w  c #56374A",
"e  c #6F4B48",
"r  c #68454A",
"t  c #553649",
"y  c #6B474C",
"u  c #704C49",
"i  c #654348",
"p  c #543549",
"a  c #674449",
"s  c #684549",
"d  c #704B48",
"f  c #6F4A48",
"g  c #664348",
"h  c #764F4C",
"j  c #664448",
"k  c #543649",
"l  c #66434D",
"z  c #6D484D",
"x  c #674448",
"c  c #603E49",
"v  c #523449",
"b  c #4B2F49",
"n  c #4F314A",
"m  c #54354B",
"M  c #55364A",
"N  c #482D46",
"B  c #482C46",
"V  c #472C46",
"C  c #41273E",
"Z  c #40273E",
"A  c #40273F",
"S  c #41273F",
"D  c #3D253B",
"F  c #3C2439",
"G  c #382235",
"H  c #372033",
"J  c #372032",
"K  c #3B2439",
"L  c #3E253C",
"P  c #392235",
"I  c #2F1B28",
"U  c #2A1721",
"Y  c #2B1722",
"T  c #2A1722",
"R  c #3D253C",
"E  c #392236",
"W  c #331D2D",
"Q  c #29161F",
"!  c #241219",
"~  c #241319",
"^  c #26141B",
"/  c #241218",
"(  c #372133",
")  c #3E263D",
"_  c #301B28",
"`  c #251319",
"'  c #25131A",
"]  c #291620",
"[  c #382134",
"{  c #2B1822",
"}  c #2A1620",
"|  c #26141C",
" . c #2B1823",
".. c #2E1A27",
"X. c #351F30",
"o. c #351F2F",
"O. c #331E2D",
"+. c #331E2E",
"@. c #2E1A26",
"#. c #2E1926",
"$. c #341F2F",
"%. c #2A1720",
"&. c #27141C",
"*. c white",
/* pixels */
"        . . . . . . . . . . . . . . . . . . . . . . . .         ",
"    . X o O + + + + + + + + + + + + + + + + + + + + + o X .     ",
"  . @ # $ % % & & & & & & & & & & & & & & & & & & % % $ # @ .   ",
"  X # * = - ; : : : : : : : : : : : : : : : : : : : > , < # X   ",
". o $ = 1 > 2 3 3 3 3 3 3 3 3 3 3 3 3 3 3 3 3 3 3 3 3 4 , 5 o . ",
". + % - > 6 7 8 8 8 8 8 8 8 8 8 8 8 8 8 8 8 8 8 8 8 8 9 0 q w . ",
". + % ; 2 7 8 8 8 8 8 8 8 8 8 8 8 8 8 8 8 8 8 8 8 8 8 e 9 r t . ",
". w y 0 u 8 8 8 8 8 8 8 8 8 8 8 8 8 8 8 8 8 8 8 8 8 8 8 e i p . ",
". t a u e 8 8 8 8 8 8 8 8 8 8 8 8 8 8 8 8 8 8 8 8 8 8 8 e i p . ",
". t s 9 d 8 8 f f f f f f f f f f f f f f f f f f f f e e g p . ",
". w q h 9 e e e e e e e e e e e e e e e e e e e e e e e d j k . ",
". o l z r j j j j j j j j j j j j j j j j j j j j j j j x c v b ",
"  n m O M k t t t t t t t t t t t t t t t t t t t t t t t v X   ",
"N B B V B B B B B B B B B B B B B B B B B B B B B B B B B B N N ",
"C Z Z Z A S S S S S S S S S S S S S S S S S S S S S S S S S S C ",
"D D D F G H H H H H H H H H H H H H J J H H H H H H H H H G K D ",
"D D L P I U U Y Y Y Y Y Y Y Y Y Y T U U T Y Y Y Y Y Y U U I G R ",
"D F E W Q ! ! ~ ~ ~ ~ ~ ~ ~ ~ ~ ! ^ Q Q ^ ! ~ ~ ~ ~ ~ ! / Y ( ) ",
"L P _ Q ^ ` ` ' ' ' ' ' ' ' ' ~ ! ] W W ] ! ~ ' ' ' ' ! ! Y [ ) ",
") ( Y / ! ' ' ' ' ' ' ' ' ' ' ` ! { G G { ! ! ' ' ' ' ~ ~ } W ( ",
") [ Y ! ! ~ ~ ~ ~ ~ ~ ~ ~ ` ' ` ! Y G G Y / ! ~ ~ ~ ~ ~ ' | ] U ",
"( W ] ^ ]  . .{ { { {  . .} | | ] ..X.o...Y Y { {  . .} | | ] Y ",
"U Q ^ ] O.[ [ [ [ [ [ [ [ W ] ] +.X.@.#.$.[ [ [ [ [ [ W ] ] W [ ",
"Y Q ^ ] O.[ [ [ [ [ [ [ [ W ] ] +.+.Q Q W [ [ [ [ [ [ W ] ] O.G ",
"[ W } ^ ]  . .{ { { {  . .} | | %.} | ^ ]  . .{ {  . .} | | }  .",
"G +.U ~ ! ~ ~ ~ ~ ~ ~ ~ ~ ` ' ' ` ` ' ' ` ~ ~ ~ ~ ~ ~ ` ' ' ` ~ ",
" .%.&.' ' ' ' ' ' ' ' ' ' ' ' ' ' ' ' ' ' ' ' ' ' ' ' ' ' ' ' ` ",
"~ ` ' ' ' ' ' ' ' ' ' ' ' ' ' ' ' ' ' ' ' ' ' ' ' ' ' ' ' ' ' ' ",
"` ' ' ' ' ' ' ' ' ' ' ' ' ' ' ' ' ' ' ' ' ' ' ' ' ' ' ' ' ' ' ' ",
"' ' ' ' ' ' ' ' ' ' ' ' ' ' ' ' ' ' ' ' ' ' ' ' ' ' ' ' ' ' ' ' ",
"' ' ' ' ' ' ' ' ' ' ' ' ' ' ' ' ' ' ' ' ' ' ' ' ' ' ' ' ' ' ' ' ",
"' ' ' ' ' ' ' ' ' ' ' ' ' ' ' ' ' ' ' ' ' ' ' ' ' ' ' ' ' ' ' ' "
};
