/* XPM */
static char *d06d0f6b9899455ffd8e643ff61aac15QKrMZHlueXO4xbRl[] = {
/* columns rows colors chars-per-pixel */
"24 24 39 1 ",
"  c #3D253B",
". c #3D253B",
"X c #3D253B",
"o c #3D253B",
"O c #3D253B",
"+ c #1A0A17",
"@ c #1C0C18",
"# c #24121A",
"$ c #3B2520",
"% c #3A2520",
"& c #1E0D18",
"* c #24121A",
"= c None",
"- c #1E0D18",
"; c #24121A",
": c #1D0C17",
"> c #1E0D18",
", c #24121A",
"< c #231119",
"1 c #1B0A16",
"2 c #1D0C17",
"3 c #3F2821",
"4 c #3E2821",
"5 c #A67E3D",
"6 c #70512E",
"7 c #CD9F49",
"8 c #E2B556",
"9 c #816338",
"0 c #6E4F2D",
"q c #CDA04B",
"w c #F8CD64",
"e c #917342",
"r c #6F502E",
"t c #C89B48",
"y c #DDB054",
"u c #806238",
"i c #C29544",
"p c #C19444",
"a c white",
/* pixels */
"                        ",
"                        ",
"        ........        ",
"        ........        ",
"       .XoO++OoX.       ",
"       .@#$34%#@.       ",
"       .&*=55=*&.       ",
"       .-;6789;:.       ",
"       .>,0qwe<1.       ",
"       .>,0qwe<1.       ",
"       .>,rtyu,2.       ",
"       .>,6ipr,>.       ",
"       .>,6ipr,>.       ",
"       .>,rtyu,2.       ",
"       .>,0qwe<1.       ",
"       .>,0qwe<1.       ",
"       .-;6789;:.       ",
"       .&*=55=*&.       ",
"       .@#$34%#@.       ",
"       .XoO++OoX.       ",
"        ........        ",
"        ........        ",
"                        ",
"                        "
};
