/* XPM */
static char *de20e273929c4592b1544b12a9309c62[] = {
/* columns rows colors chars-per-pixel */
"24 24 88 1 ",
"  c #3D253B",
". c #3D253B",
"X c #3D253B",
"o c #3D253B",
"O c #3D253B",
"+ c #24131A",
"@ c #150516",
"# c #1A0A17",
"$ c #1A0A17",
"% c #1A0A17",
"& c #070013",
"* c #301C1C",
"= c #3D2720",
"- c #301C1D",
"; c #070012",
": c #190917",
"> c None",
", c #926D37",
"< c #4C311F",
"1 c #4C3221",
"2 c #4C3324",
"3 c #3F2820",
"4 c #3E2820",
"5 c #A87F3D",
"6 c #A57C3C",
"7 c #816139",
"8 c #D0B179",
"9 c #EACC8F",
"0 c #E7CA8F",
"q c #EAC575",
"w c #D0A650",
"e c #815F31",
"r c #D5B26F",
"t c #F8E6BB",
"y c #FCECC5",
"u c #F4E1B6",
"i c #FCDD90",
"p c #F8CE67",
"a c #D5AD5E",
"s c #81633D",
"d c #FFF1CB",
"f c #E6CB95",
"g c #CAA25A",
"h c #CAA25B",
"j c #E6BC60",
"k c #FFD977",
"l c #F8E1AA",
"z c #D0B37C",
"x c #EACD91",
"c c #FCEDC8",
"v c #E6CB96",
"b c #DDC087",
"n c #DDBD7E",
"m c #DDB35B",
"M c #DDB050",
"N c #E6BD63",
"B c #FCDE94",
"V c #EAC576",
"C c #E7C785",
"Z c #F4DDA6",
"A c #CAA157",
"S c #FFEBB0",
"D c #FFDB79",
"F c #DDB152",
"G c #CA9D4A",
"H c #F4CA62",
"J c #E7BB59",
"K c #3E2821",
"L c #E7BD62",
"P c #F4CD70",
"I c #CA9E4C",
"U c #DDB45E",
"Y c #FFD86D",
"T c #DDB255",
"R c #FCDE91",
"E c #E6BA5A",
"W c #FCD267",
"Q c #EABD5A",
"! c #3F2821",
"~ c #E6BA57",
"^ c #FFD569",
"/ c #F8CE65",
"( c #D5AD5F",
") c #F8CF68",
"_ c #F4CA63",
"` c #D5A950",
"' c #816034",
"] c white",
/* pixels */
"                        ",
"                        ",
"       ..........       ",
"       ..........       ",
"     ..X@#$%%$#@X..     ",
"    .oO&*=3443=-;Oo.    ",
"    .O+:=>5665,=:+O.    ",
"  ..X&:<78900qwe1:&X..  ",
"  ..@*=7rtyuuipas=*@..  ",
"  ..#=>8tdfghjklz>=#..  ",
"  ..$35xcvbnmMNBV53$..  ",
"  ..%46CZAnSDFGHJ6K%..  ",
"  ..%K6LPIUDYTGHJ6K%..  ",
"  ..$35qRNFFTTEWQ5!$..  ",
"  ..#=>zlk~GGE^/w,=#..  ",
"  ..@*=s()W__W/`'=-@..  ",
"  ..X&:1ewQJJQw'2:;X..  ",
"    .O+:=,5665,=:+O.    ",
"    .oO;-=!KK!=-;Oo.    ",
"     ..X@#$%%$#@X..     ",
"       ..........       ",
"       ..........       ",
"                        ",
"                        "
};
