/* XPM */
static char *ee80f8bdd9ba4ddf9ceb9a652b4ddf85[] = {
/* columns rows colors chars-per-pixel */
"24 24 191 2 ",
"   c #3D253B",
".  c #1F0C14",
"X  c #20070C",
"o  c #220C12",
"O  c #220D12",
"+  c #230E14",
"@  c #230F15",
"#  c #270F17",
"$  c #231017",
"%  c #231118",
"&  c #241118",
"*  c #251118",
"=  c #241218",
"-  c #241219",
";  c #251219",
":  c #251319",
">  c #25131A",
",  c #26151D",
"<  c #2B151F",
"1  c #2C141E",
"2  c #291A23",
"3  c #291C26",
"4  c #2E1E24",
"5  c #391C2C",
"6  c #29202A",
"7  c #2A202A",
"8  c #2C212C",
"9  c #2D232E",
"0  c #2D242F",
"q  c #332228",
"w  c #2D2430",
"e  c #2D2935",
"r  c #2E2934",
"t  c #2E2935",
"y  c #2E2A37",
"u  c #2E2B38",
"i  c #2F2B38",
"p  c #2F2C39",
"a  c #2F2D39",
"s  c #322C37",
"d  c #352A39",
"f  c #332F3A",
"g  c #3E3137",
"h  c #33303F",
"j  c #3F3339",
"k  c #402F32",
"l  c #413337",
"z  c #423337",
"x  c #333343",
"c  c #373141",
"v  c #343343",
"b  c #353545",
"n  c #333B4C",
"m  c #363B4C",
"M  c #482940",
"N  c #512E49",
"B  c #513E5A",
"V  c #354052",
"C  c #374152",
"Z  c #364255",
"A  c #3A4052",
"S  c #3A4252",
"D  c #3B4255",
"F  c #394459",
"G  c #39445A",
"H  c #3C455A",
"J  c #3D475C",
"K  c #3E4A5F",
"L  c #3A4B62",
"P  c #3E4B60",
"I  c #3F4B60",
"U  c #3E5368",
"Y  c #3C536A",
"T  c #3D546C",
"R  c #3D556C",
"E  c #3F566D",
"W  c #3E5871",
"Q  c #3E5972",
"!  c #3F5B74",
"~  c #474853",
"^  c #434859",
"/  c #5B5053",
"(  c #5E5558",
")  c #544563",
"_  c #415369",
"`  c #43546B",
"'  c #40556C",
"]  c #41556C",
"[  c #43556D",
"{  c #40566C",
"}  c #425970",
"|  c #415A71",
" . c #445871",
".. c #415D75",
"X. c #405D76",
"o. c #425F76",
"O. c #435F76",
"+. c #475C76",
"@. c #485E79",
"#. c #485F79",
"$. c #5D646F",
"%. c #426179",
"&. c #43617A",
"*. c #44637C",
"=. c #45637C",
"-. c #48627C",
";. c #51607E",
":. c #686062",
">. c #6D6364",
",. c #6D686B",
"<. c #7A7475",
"1. c #7B7677",
"2. c #486B85",
"3. c #466C89",
"4. c #486E88",
"5. c #506C82",
"6. c #516F87",
"7. c #516E8D",
"8. c #55768E",
"9. c #5A6E91",
"0. c #567294",
"q. c #517595",
"w. c #5F779C",
"e. c #527898",
"r. c #507F9E",
"t. c #777F85",
"y. c #617399",
"u. c #617EA4",
"i. c #5180A0",
"p. c #5286A6",
"a. c #5A80A4",
"s. c #558AAC",
"d. c #598BAF",
"f. c #598CB0",
"g. c #5B8EB3",
"h. c #5C8FB5",
"j. c #5690B3",
"k. c #5691B4",
"l. c #5791B4",
"z. c #5A93B7",
"x. c #5994B8",
"c. c #5D99BC",
"v. c #7195AA",
"b. c #6797B4",
"n. c #6899B6",
"m. c #6097BE",
"M. c #699CB9",
"N. c #689CBA",
"B. c #5E9CC2",
"V. c #5F9DC5",
"C. c #5D9EC4",
"Z. c #5FA2C9",
"A. c #5EA3CB",
"S. c #5FA3CB",
"D. c #62A3CB",
"F. c #61A7CF",
"G. c #6BABCF",
"H. c #61A7D0",
"J. c #62A8D1",
"K. c #62ABD4",
"L. c #62ABD5",
"P. c #63ACD6",
"I. c #63ADD6",
"U. c #63ADD7",
"Y. c #63AED7",
"T. c #70AFD1",
"R. c #74B4D6",
"E. c #70BAE2",
"W. c #8EA1AA",
"Q. c #B3B4AF",
"!. c #A2AEB2",
"~. c #A3B0B3",
"^. c #A4B4B8",
"/. c #B0B3B0",
"(. c #B4B5B0",
"). c #B8BCB8",
"_. c #B9BDB9",
"`. c #89B0C3",
"'. c #8AB3C7",
"]. c #8FB7CA",
"[. c #9BC3D4",
"{. c #9AC6D9",
"}. c #9BC8DB",
"|. c #9FCCDF",
" X c #ABC5CE",
".X c #BDD0D2",
"XX c #BBD5DB",
"oX c #BDD5DA",
"OX c #96C9E1",
"+X c #CCD3CE",
"@X c #D7DDD6",
/* pixels */
"                                                ",
"                                                ",
"              e i                               ",
"            ; | r.i o ; ;                       ",
"            ; &.G.t.$.! ! V X                   ",
"            ; Y M. X[.R.R.6.i i e               ",
"      ;       6 S M.{..X.X`.k.k.' ;             ",
"    e R Z     n 5.'.XX@X@XoXOXE.o.o             ",
"    f n.8.e e 3.T.^.Q././.(.!.b.o.p             ",
"    j ~.].j.j.A.c.~ k l l l g s =.i.p           ",
"  . q >.W.}.|.v.R F L W W W R H _ Y 6 @         ",
"    % % 1.+X).,.x q.V.I.I.I.F.g.' 9 , ;         ",
"      $ 1.)./ ^ q.B.L.I.I.I.L.F.d.+.9 o         ",
"        ( :.4 F a.w.y.9.-.p.D.u.;.D 3 @         ",
"          ; ; I 0.B N M < &.m.) 5 ; ; ;         ",
"            ; I 7.d 1 < ; =.z.c # ; ; ;         ",
"              b J K ' o.o.s.A.4.' D 3 @         ",
"                9 @.d.H.I.V.x.A.g.@.0           ",
"                  w ` h.J.2.m e. .w             ",
"                    h K | V 2 S c               ",
"                      ; ;     ;                 ",
"                                                ",
"                                                ",
"                                                "
};
