/* XPM */
static char *_c9a05fd56bf4f6edf3b4c72328ee155SFdyZfShmhdCOFCs[] = {
/* columns rows colors chars-per-pixel */
"16 16 7 1 ",
"  c None",
". c #25131A",
"X c #523B40",
"o c #895A45",
"O c #BF704D",
"+ c #90919E",
"@ c #ADC1CF",
/* pixels */
"   OO      OO   ",
"   oo      oo   ",
"   oo      oo   ",
"..O+@OOOOOO@+O..",
"..oooooooooooo..",
"...XX......XX...",
"...oo......oo...",
"...oo......oo...",
"...oo......oo...",
"...oo......oo...",
"...oo......oo...",
"..O+@OOOOOO@+O..",
"..oooooooooooo..",
"...XX......XX...",
"...oo......oo...",
"...oo......oo..."
};
