/* XPM */
static const char *bGFkZGVy[] = {
/* columns rows colors chars-per-pixel */
"24 24 66 1 ",
"  c #201018",
". c #211018",
"X c #211019",
"o c #221119",
"O c #231219",
"+ c #241219",
"@ c #24121A",
"# c #24131A",
"$ c #25131A",
"% c #2D191D",
"& c #321B1E",
"* c #382021",
"= c #3E2222",
"- c #40292D",
"; c #4D302C",
": c #52342F",
"> c #55362F",
", c #56362F",
"< c #573730",
"1 c #583730",
"2 c #663A2F",
"3 c #603E36",
"4 c #624038",
"5 c #6B463E",
"6 c #6B473F",
"7 c #744233",
"8 c #744234",
"9 c #5C4141",
"0 c #81523F",
"q c #815545",
"w c #885944",
"e c #895944",
"r c #8A5A45",
"t c #8A5B45",
"y c #8A5B46",
"u c #8C5C46",
"i c #935E46",
"p c #935E47",
"a c #945F47",
"s c #9F5E43",
"d c #835E54",
"f c #92634F",
"g c #93644F",
"h c #8B6556",
"j c #8F6B5C",
"k c #926652",
"l c #A56549",
"z c #B76C4B",
"x c #B76D4C",
"c c #B86D4B",
"v c #B86D4C",
"b c #BF704D",
"n c #896B62",
"m c #8F7C79",
"M c #907D7A",
"N c #A27668",
"B c #A77C6E",
"V c #A87D6E",
"C c #C3724E",
"Z c #AA887A",
"A c #998D8B",
"S c #9A8E8B",
"D c #939098",
"F c #B09084",
"G c #A3ABB3",
"H c None",
/* pixels */
"HHHHbbbbHHHHHHHHbbbbHHHH",
"HHHHllllHHHHHHHHllllHHHH",
"HHHHHwwHHHHHHHHHHwwHHHHH",
"HHHHHwwHHHHHHHHHHwwHHHHH",
"$ HHNmAZHHCCCCHHZAmNHH $",
"$ =sBDGFzzxxxxzzFGDBs= $",
"$ *0fhjkiiiiiiiikjhf0* $",
"$ %;4663>>>>>>>>3664;% $",
"$$$$-99-$$$$$$$$-99-$$$$",
"$$$$:qq:$$$$$$$$:qq:$$$$",
"$$$$1uu1$$$$$$$$1uu1$$$$",
"$$$$<ww<$$$$$$$$<ww<$$$$",
"$$$$<ww1$$$$$$$$<ww<$$$$",
"$$$$<ww1$$$$$$$$<ww<$$$$",
"$$$ >ww>  $$$$  >ww> $$$",
"$$$$>ww>  $$$$  >ww>$$$$",
"$ &2dMAn77888877nAMd2& $",
"$ =sVDGFvcvvvvcvFGDVs= $",
"$ *0ghjkaaaaaaaakjhg0* $",
"$ %;4663>>>>>>>>3664;% $",
"$$$$-99-$$$$$$$$-99-$$$$",
"$$$$:qq:$$$$$$$$:qq:$$$$",
"$$$$1uu1$$$$$$$$1uu1$$$$",
"$$$$<ww<$$$$$$$$<ww<$$$$"
};
