/* XPM */
static char *_22523dc93bb477fba67e1f8aff609f5ydIStyhABvL1STqU[] = {
/* columns rows colors chars-per-pixel */
"16 16 5 1 ",
"  c #25131A",
". c #3D253B",
"X c #4C2F49",
"o c #6E4A48",
"O c #78514F",
/* pixels */
"XXXXXXXXXXXXXXXX",
"XXOOOOOOOOOOOOXX",
"XOOoooooooooooOX",
"XOoooooooooooooX",
"XooooooooooooooX",
"XOoooooooooooooX",
"XXXXXXXXXXXXXXXX",
"................",
"..             .",
".        .     .",
".        .      ",
"  ..... . .... .",
".               ",
"                ",
"                ",
"                "
};
