/* XPM */
static const char *d2FsbF91cF8y[] = {
/* columns rows colors chars-per-pixel */
"24 24 132 2 ",
"   c #593756",
".  c #52334F",
"X  c #4E304B",
"o  c #573554",
"O  c #593757",
"+  c #523350",
"@  c #4C2F49",
"#  c #533350",
"$  c #57374C",
"%  c #5E3D4A",
"&  c #62404E",
"*  c #63404F",
"=  c #603E4C",
"-  c #5C3C48",
";  c #5C3C49",
":  c #5D3C49",
">  c #543549",
",  c #6E4A48",
"<  c #5D3C48",
"1  c #603E4B",
"2  c #754F4C",
"3  c #744E4C",
"4  c #492D47",
"5  c #724D4D",
"6  c #3F273D",
"7  c #4C3140",
"8  c #5A3C43",
"9  c #5A3B43",
"0  c #3F263D",
"q  c #3C253A",
"w  c #472D3D",
"e  c #533640",
"r  c #53363F",
"t  c #4C3041",
"y  c #442A42",
"u  c #3D253B",
"i  c #472D3E",
"p  c #543740",
"a  c #523640",
"s  c #4E3144",
"d  c #4A2D47",
"f  c #432B3E",
"g  c #4C3240",
"h  c #442C3F",
"j  c #40273D",
"k  c #301B29",
"l  c #382233",
"z  c #432B3D",
"x  c #482D3D",
"c  c #482E3D",
"v  c #432A3D",
"b  c #3F273C",
"n  c #29161F",
"m  c #331E2D",
"M  c #41283C",
"N  c #40283C",
"B  c #3E263B",
"V  c #3E263C",
"C  c #40273C",
"Z  c #392235",
"A  c #3F283A",
"S  c #482F3F",
"D  c #4E333F",
"F  c #50343F",
"G  c #41293D",
"H  c #442C3E",
"J  c #4B313F",
"K  c #462D3F",
"L  c #503540",
"P  c #553840",
"I  c #462C3E",
"U  c #41283D",
"Y  c #4C323F",
"T  c #3F2734",
"R  c #452C3A",
"E  c #452B3A",
"W  c #3D2537",
"Q  c #4E333E",
"!  c #543741",
"~  c #3D252F",
"^  c #39232F",
"/  c #553740",
"(  c #4C3340",
")  c #38232F",
"_  c #2E1A25",
"`  c #442D3B",
"'  c #503541",
"]  c #41293B",
"[  c #311C2A",
"{  c #392334",
"}  c #422934",
"|  c #3B242C",
" . c #3A232C",
".. c #36212C",
"X. c #2B1821",
"o. c #26131B",
"O. c #311D28",
"+. c #38222C",
"@. c #392236",
"#. c #3B2438",
"$. c #36202E",
"%. c #2C1920",
"&. c #3E273B",
"*. c #291620",
"=. c #34202D",
"-. c #432C3C",
";. c #4A323F",
":. c #4A333C",
">. c #483139",
",. c #48313A",
"<. c #4A323E",
"1. c #3C2638",
"2. c #241219",
"3. c #36222B",
"4. c #4B333E",
"5. c #4F3740",
"6. c #513941",
"7. c #513942",
"8. c #4A333E",
"9. c #3D2734",
"0. c #321C2C",
"q. c #25131A",
"w. c #38242C",
"e. c #4D3640",
"r. c #4D353F",
"t. c #251319",
"y. c #34202A",
"u. c #452E3C",
"i. c #442E3C",
"p. c #2C1922",
"a. c #331F2A",
"s. c white",
/* pixels */
"  . X o O                 + @ @ @ @ @ @ @ @ @ @ ",
"# $ % & * * * * * * * * * = - - ; ; ; ; : : > @ ",
"@ - , , , , , , , , , , , , , , , , , , , , - @ ",
"@ - , , , , , , , , , , , , , , , , , , , , < @ ",
"@ 1 2 2 3 3 3 3 3 3 3 3 3 3 3 3 3 3 3 3 2 2 1 @ ",
"4 : 5 5 5 5 5 5 5 5 5 5 5 5 5 5 5 5 5 5 5 5 : 4 ",
"6 7 8 8 9 9 9 9 9 9 9 9 9 9 9 9 9 9 9 9 8 8 7 0 ",
"q w e e r r r r r r r r r r r r r r r r r r t y ",
"u i e p p p p p p p p p p p p p p p p p p a s d ",
"u f g e p p p p p p p p p p p p p p p p e g h j ",
"k l z w x x x x x c c c c x x x x x x x w v b q ",
"n m b M M M M M N b B u V C M M M M M M N b V u ",
"Z A S D F F F F D S G V H J F F F F F F D S G u ",
"0 K L p P P P P p L I U Y a P P P P P P p L T k ",
"Z R e p p p p p p e E W Q ! p p p p p p p e ~ n ",
"n ^ g e / p p / e ( ) _ ` ' p p p p p / e g ] Z ",
"[ { f i } | | |  ...X.o.O.+.| | | | | } i f { [ ",
"@.#.B N $.%.%.%.%.%.%.%.%.%.%.%.%.%.%.$.N &.m n ",
"*.=.-.;.:.>.>.>.>.>.>.,.>.>.>.>.>.>.>.:.<.-.1.Z ",
"2.3.4.5.6.7.7.6.6.6.6.6.6.6.6.6.6.7.7.6.5.8.9.0.",
"q.w.e.e.r.r.r.r.r.r.r.r.r.r.r.r.r.r.r.r.e.e.w.t.",
"q.y.u.u.i.i.i.i.i.i.i.i.i.i.i.i.i.i.i.i.u.u.y.t.",
"q.p.a.a.a.a.a.a.a.a.a.a.a.a.a.a.a.a.a.a.a.a.p.q.",
"q.q.q.q.q.q.q.q.q.q.q.q.q.q.q.q.q.q.q.q.q.q.q.q."
};
